#!OML:ASF I:\Actors\actors\Patient Classification 2\Patient 1\Session 1\actor1.ASF
:FULLY-SPECIFIED
:DEGREES
276
root -0.508743 18.6884 5.32499 -1.84498 0.485514 -0.786892
lowerback 12.6328 -1.48086 0.695729
upperback 5.20866 -1.82809 1.7143
thorax -1.58653 -0.919434 1.64003
lowerneck -13.2567 -3.23247 -3.06644
upperneck 41.7809 -4.67859 1.18728
head 17.8328 -2.23845 0.235608
rclavicle 1.37161e-014 -2.14687e-014
rhumerus -69.4983 59.471 -103.067
rradius 106.691
rwrist -14.0387
rhand -2.70296 -58.9153
rfingers 7.12502
rthumb 22.999 -447.563
lclavicle 1.37161e-014 -2.14687e-014
lhumerus -44.4604 -65.3695 110.793
lradius 92.6227
lwrist 38.9683
lhand 2.72872 7.35888
lfingers 7.12502
lthumb 28.2013 35.2572
rfemur 0 0 0
rtibia 0
rfoot 0 0
rtoes 0
lfemur -3.82715 -2.77549 -13.6809
ltibia 22.5264
lfoot -19.2643 8.81209
ltoes -56.4554
277
root -0.509772 18.6845 5.33483 -2.03391 0.560436 -0.77919
lowerback 12.5765 -1.54585 0.70154
upperback 5.21845 -1.9156 1.67154
thorax -1.54566 -0.962687 1.60223
lowerneck -13.2191 -3.23353 -3.00816
upperneck 41.7476 -4.69953 1.17983
head 17.801 -2.24059 0.218418
rclavicle -1.5207e-014 7.95139e-015
rhumerus -70.2638 59.3482 -104.103
rradius 106.907
rwrist -12.2881
rhand -2.94159 -58.4063
rfingers 7.12502
rthumb 22.77 -447.083
lclavicle -1.5207e-014 7.95139e-015
lhumerus -44.8856 -65.3419 111.89
lradius 92.5401
lwrist 38.7797
lhand 1.63825 5.74997
lfingers 7.12502
lthumb 27.1586 33.8157
rfemur 0 0 0
rtibia 0
rfoot 0 0
rtoes 0
lfemur -3.60794 -2.76114 -13.6873
ltibia 22.5346
lfoot -19.2828 8.6946
ltoes -56.349
278
root -0.510651 18.6808 5.344 -2.19713 0.606777 -0.722364
lowerback 12.5114 -1.5773 0.646884
upperback 5.23979 -1.96631 1.62382
thorax -1.48706 -0.988386 1.58767
lowerneck -13.2099 -3.27887 -2.96079
upperneck 41.7015 -4.76895 1.13837
head 17.77 -2.26802 0.178064
rclavicle -9.0447e-015 -1.47101e-014
rhumerus -71.369 59.2102 -105.438
rradius 106.854
rwrist -9.46218
rhand -3.85724 -57.6521
rfingers 7.12502
rthumb 21.891 -446.434
lclavicle -9.0447e-015 -1.47101e-014
lhumerus -45.1947 -65.3561 112.876
lradius 92.416
lwrist 38.4764
lhand 1.77629 5.36547
lfingers 7.12502
lthumb 27.2906 33.4105
rfemur 0 0 0
rtibia 0
rfoot 0 0
rtoes 0
lfemur -3.4002 -2.72436 -13.7488
ltibia 22.5247
lfoot -19.2594 8.60127
ltoes -56.3593
279
root -0.511906 18.6769 5.35123 -2.34403 0.638046 -0.700995
lowerback 12.4834 -1.59307 0.633905
upperback 5.23704 -1.98974 1.60042
thorax -1.47476 -1.00003 1.57293
lowerneck -13.1218 -3.3489 -3.02038
upperneck 41.6141 -4.86712 1.15822
head 17.702 -2.31642 0.181944
rclavicle -1.95803e-014 -1.19271e-015
rhumerus -71.1816 58.8323 -105.381
rradius 107.587
rwrist -11.0656
rhand -2.79162 -58.2863
rfingers 7.12502
rthumb 22.9139 -446.945
lclavicle -1.95803e-014 -1.19271e-015
lhumerus -45.3858 -65.4034 113.814
lradius 92.2208
lwrist 38.0968
lhand 2.8224 5.64861
lfingers 7.12502
lthumb 28.2908 33.5321
rfemur 0 0 0
rtibia 0
rfoot 0 0
rtoes 0
lfemur -3.20906 -2.7796 -13.7836
ltibia 22.5098
lfoot -19.2964 8.58502
ltoes -56.4023
280
root -0.510331 18.673 5.36257 -2.52254 0.627561 -0.729885
lowerback 12.456 -1.60782 0.73758
upperback 5.2097 -1.99836 1.5676
thorax -1.49309 -1.00264 1.48133
lowerneck -12.9137 -3.42081 -3.12017
upperneck 41.5603 -4.98265 1.23017
head 17.6269 -2.37254 0.216209
rclavicle -4.17448e-015 -5.96354e-015
rhumerus -71.5436 58.4924 -105.821
rradius 108.074
rwrist -11.3498
rhand -2.30858 -58.3593
rfingers 7.12502
rthumb 23.3774 -446.96
lclavicle -4.17448e-015 -5.96354e-015
lhumerus -45.9615 -65.4952 115.036
lradius 91.9848
lwrist 37.3005
lhand 3.66409 5.56081
lfingers 7.12502
lthumb 29.0949 33.3082
rfemur 0 0 0
rtibia 0
rfoot 0 0
rtoes 0
lfemur -2.96223 -2.89699 -13.7877
ltibia 22.5052
lfoot -19.4046 8.67205
ltoes -56.4707
